<?xml version="1.0" encoding="utf-8"?>
<!DOCTYPE svg PUBLIC "-//W3C//DTD SVG 1.1//EN" "http://www.w3.org/Graphics/SVG/1.1/DTD/svg11.dtd">
<svg version="1.1" xmlns="http://www.w3.org/2000/svg" xmlns:xlink="http://www.w3.org/1999/xlink" viewBox="0 0 26 26">
	<g>
		<rect x="5.808" y="10.111" width="1.918" height="1.857"/>
		<rect x="5.808" y="13.225" width="1.918" height="1.858"/>
		<rect x="8.598" y="10.111" width="7.586" height="1.857"/>
		<rect x="8.598" y="13.225" width="7.586" height="1.858"/>
		<path d="M4.39,20.517V8.871h14.585v6.114c0.174-0.021,0.35-0.035,0.529-0.035c0.283,0,0.559,0.035,0.826,0.086V5.48
			c0-0.499-0.406-0.904-0.904-0.904H3.938c-0.499,0-0.904,0.405-0.904,0.904v15.49c0,0.498,0.405,0.904,0.904,0.904h11.319
			c-0.521-0.523-0.91-1.023-1.15-1.357H4.39z"/>
		<path d="M18.524,15.755c-2.508,0-4.543,3.195-4.543,3.195s2.035,3.195,4.543,3.195s4.541-3.195,4.541-3.195
			S21.032,15.755,18.524,15.755z M18.524,20.479c-0.846,0-1.53-0.686-1.53-1.529c0-0.846,0.685-1.531,1.53-1.531
			c0.844,0,1.529,0.686,1.529,1.531C20.054,19.794,19.368,20.479,18.524,20.479z"/>
	</g>
</svg>
